<svg xmlns="http://www.w3.org/2000/svg" xmlns:xlink="http://www.w3.org/1999/xlink" viewBox="0 0 205.17 211.37"><defs><style>.cls-1{fill:#fffffe;}.cls-2{fill:url(#linear-gradient);}</style><linearGradient id="linear-gradient" x1="40.27" y1="-2.24" x2="164.88" y2="213.59" gradientUnits="userSpaceOnUse"><stop offset="0" stop-color="#feff2a"/><stop offset="0.55" stop-color="#15b3ff"/><stop offset="1" stop-color="#660094"/></linearGradient></defs><title>Asset 1</title><g id="Layer_2" data-name="Layer 2"><g id="Layer_1-2" data-name="Layer 1"><ellipse class="cls-1" cx="65.38" cy="154.39" rx="3" ry="3.09"/><ellipse class="cls-2" cx="102.58" cy="105.68" rx="102.57" ry="105.67"/><path class="cls-1" d="M65.38,43.67h83.18A7.46,7.46,0,0,1,154,46a8,8,0,0,1,2.25,5.57v108a8,8,0,0,1-2.25,5.58,7.5,7.5,0,0,1-5.4,2.32H65.38A7.51,7.51,0,0,1,60,165.18a8,8,0,0,1-2.25-5.58v-108A8,8,0,0,1,60,46a7.47,7.47,0,0,1,5.41-2.32Zm83,2.15H65.14a5.62,5.62,0,0,0-4.06,1.74,6,6,0,0,0-1.69,4.19v108.1A6,6,0,0,0,61.08,164a5.63,5.63,0,0,0,4.06,1.75h83.23a5.67,5.67,0,0,0,4.07-1.75,6,6,0,0,0,1.69-4.18V51.75a6,6,0,0,0-1.69-4.19A5.66,5.66,0,0,0,148.37,45.82Z"/><path class="cls-1" d="M58.63,52.38a1,1,0,0,1,.87,1,1,1,0,0,1-1,.91c-3.34-.26-5.57,1.12-6.62,3A5.78,5.78,0,0,0,51.14,60a5.88,5.88,0,0,0,.55,2.69c1,2.06,3.23,3.68,6.89,3.78h6.79a.84.84,0,0,1,1,.89,1.52,1.52,0,0,1-1,1.25H58.58c-4.5-.27-7.35-2.39-8.6-5.07a8,8,0,0,1-.74-3.6,7.84,7.84,0,0,1,1-3.53C51.59,53.88,54.43,52.05,58.63,52.38Z"/><ellipse class="cls-1" cx="65.38" cy="67.35" rx="3" ry="3.09"/><path class="cls-1" d="M58.63,74.14a1,1,0,0,1,.87,1,1,1,0,0,1-1,.91c-3.34-.26-5.57,1.12-6.62,3a5.78,5.78,0,0,0-.72,2.62,5.85,5.85,0,0,0,.55,2.69c1,2.06,3.23,3.69,6.89,3.51h6.79a1.3,1.3,0,0,1,1,1.16,1,1,0,0,1-1,1H58.58c-4.5,0-7.35-2.12-8.6-4.81a8,8,0,0,1-.74-3.6,7.84,7.84,0,0,1,1-3.53C51.59,75.64,54.43,73.81,58.63,74.14Z"/><ellipse class="cls-1" cx="65.38" cy="89.11" rx="3" ry="3.09"/><path class="cls-1" d="M58.63,95.9a1,1,0,0,1,.87,1,1,1,0,0,1-1,.91c-3.34-.26-5.57,1.12-6.62,3a5.78,5.78,0,0,0-.72,2.62,5.85,5.85,0,0,0,.55,2.69c1,2.06,3.23,3.69,6.89,3.68h6.79a1,1,0,0,1,1,1,1.3,1.3,0,0,1-1,1.16H58.58c-4.5-.18-7.35-2.29-8.6-5a7.92,7.92,0,0,1-.74-3.6,7.84,7.84,0,0,1,1-3.53C51.59,97.4,54.43,95.58,58.63,95.9Z"/><ellipse class="cls-1" cx="65.38" cy="110.87" rx="3" ry="3.09"/><path class="cls-1" d="M58.63,117.66a1,1,0,0,1,.87,1,1,1,0,0,1-1,.91c-3.34-.26-5.57,1.12-6.62,3a5.78,5.78,0,0,0-.72,2.62,5.85,5.85,0,0,0,.55,2.69c1,2.06,3.23,3.69,6.89,3.42h6.79a1.52,1.52,0,0,1,1,1.25.85.85,0,0,1-1,.9H58.58c-4.5.09-7.35-2-8.6-4.72a7.89,7.89,0,0,1-.74-3.6,7.8,7.8,0,0,1,1-3.52C51.59,119.17,54.43,117.34,58.63,117.66Z"/><ellipse class="cls-1" cx="65.38" cy="132.63" rx="3" ry="3.09"/><path class="cls-1" d="M58.63,139.43a1,1,0,0,1,.87,1,1,1,0,0,1-1,.9c-3.34-.26-5.57,1.12-6.62,3a5.72,5.72,0,0,0-.72,2.62,5.84,5.84,0,0,0,.55,2.68c1,2.07,3.23,3.69,6.89,3.59h6.79a1.14,1.14,0,0,1,1,1.08,1.11,1.11,0,0,1-1,1.07H58.58c-4.5-.08-7.35-2.2-8.6-4.88a8,8,0,0,1-.74-3.61,7.8,7.8,0,0,1,1-3.52C51.59,140.93,54.43,139.1,58.63,139.43Z"/><path class="cls-1" d="M81.45,59.58h51a3.6,3.6,0,0,1,2.61,1.11,3.83,3.83,0,0,1,1.09,2.68V82.44a3.85,3.85,0,0,1-1.09,2.68,3.6,3.6,0,0,1-2.61,1.11h-51a3.62,3.62,0,0,1-2.61-1.11,3.85,3.85,0,0,1-1.09-2.68V63.37a3.83,3.83,0,0,1,1.09-2.68,3.62,3.62,0,0,1,2.61-1.11Zm50.85,2.15H81.21a1.72,1.72,0,0,0-1.26.54,1.82,1.82,0,0,0-.53,1.29V82.67A1.83,1.83,0,0,0,80,84a1.72,1.72,0,0,0,1.26.54H132.3a1.76,1.76,0,0,0,1.27-.54,1.86,1.86,0,0,0,.52-1.3V63.56a1.86,1.86,0,0,0-.52-1.29A1.76,1.76,0,0,0,132.3,61.73Z"/></g></g></svg>