<svg xmlns="http://www.w3.org/2000/svg" xmlns:xlink="http://www.w3.org/1999/xlink" viewBox="0 0 3397.35 2818.18"><defs><style>.cls-1{fill:url(#linear-gradient);}</style><linearGradient id="linear-gradient" x1="1637.27" y1="3680.62" x2="3292.93" y2="1227.11" gradientUnits="userSpaceOnUse"><stop offset="0" stop-color="#feff2a"/><stop offset="0.34" stop-color="#ed2836"/><stop offset="0.73" stop-color="#660094"/><stop offset="1" stop-color="#15b3ff"/></linearGradient></defs><title>Brain</title><g id="brain"><path class="cls-1" d="M4198.67,2290.8,4066,2086.24a142.19,142.19,0,1,0-167-229.13l-262.37-281.57-671.39-283.68a152,152,0,1,0-295.62-58.81l-873.1,68.21L1222.5,1781l-172,247.37a189.81,189.81,0,0,0-59.18-9.41c-104.94,0-190,85.07-190,190s85.07,190,190,190c1.62,0,3.23,0,4.83-.07l127.23,379.06,307.87,186.49a115.5,115.5,0,1,0,227.94,30.94l130.45-44.15,175.62,235.39,312.9,62.59,813.36,659.89,46.22-30.07-84.37-311.78a108,108,0,0,0-54.2-200.31L2972,3266.39l529.87,93.72,279-87.46,96.62-256.24L3852.4,2873l276.51-178Zm-335.43-387.11a142.25,142.25,0,0,0,128.28,203.6,143.5,143.5,0,0,0,18.3-1.17l104,160.41-360.13-10.2-90.49-567.25ZM1828,1919.32a140.56,140.56,0,0,0,23.13-6.49l177.36,294.69L1828,2201.85Zm72.8-38.18a142.07,142.07,0,0,0,34.38-148.22l216.56-112.62L2310.5,1738a113.76,113.76,0,0,0,173.27,128.46L2877,2158a222.5,222.5,0,0,0-23.48,72.85l-755-21.38Zm952.09,407.65a223,223,0,0,0,12,50.42l-415.24,212.68a152.3,152.3,0,0,0-178.43-55.61L2134,2268.44Zm-376,350a152.77,152.77,0,0,0-3.76-33.77l418.54-214.38a224.49,224.49,0,0,0,282.71,73.28L3466,2881.09l-886,128.12-154.47-256.55A151.79,151.79,0,0,0,2476.84,2638.75Zm745.81-206.88a224.15,224.15,0,0,0,74-130.51l407.38,11.54,83.22,521.72-257.09,37.18Zm472.14-177.21-395.49-11.19c-9.57-115.11-106-205.56-223.59-205.56a223.78,223.78,0,0,0-165.33,72.7l-230.9-171.18L3596.43,1638Zm-157.56-658.23-914.74,300.74-101.13-75a113.76,113.76,0,0,0-179.4-133l-133-98.63L2700.4,1335a152,152,0,0,0,235.79,7.47Zm-880-304.29-500.09,260L1887.5,1352.27ZM1265.63,1820.42l543.47-454.14L2100,1581.92,1905.1,1683.25a142,142,0,0,0-242.7,126.21L1134.49,2084a191.32,191.32,0,0,0-31.88-29.08Zm-211.85,568a190.28,190.28,0,0,0,124.81-147.05l542.05,15.35-559,453.13ZM1771,2896.25l-124.21,42.1A115.4,115.4,0,0,0,1458.1,2913l-260.55-157.75,573.45-465Zm-591.51-712.8a188.66,188.66,0,0,0-14-50.36l520.09-270.51a141.93,141.93,0,0,0,85.38,56.16v281.47ZM1828,2259.81l236.55,6.68L2221.34,2527a153,153,0,0,0-40.47,162L1828,2869.64Zm170.43,874.35-154.41-207,366.58-187.76a152.32,152.32,0,0,0,165.08,42.73L2526,3031.8l-241.15,159.64Zm568.53-60,340.51,175.63,35.63,131.69a108.5,108.5,0,0,0-40.89,42.21L2354,3215.18Zm491.44,733.41-609-494.12,440.13,167.4a108,108,0,0,0,107.84,102h.27Zm439.62-507-556.55-98.44-282.65-145.79,844.36-122.1,209.15,299.16Zm253-113L3567.39,2925l229.46-33.18,20.83,119Zm91.15-376.9L3763,2314.56l370.93,10.5-57.82,335Z" transform="translate(-801.33 -1090.91)"/></g></svg>